<svg width="18" height="19" viewBox="0 0 18 19" fill="none" xmlns="http://www.w3.org/2000/svg">
<path d="M16.8159 11.5574L15.5 10.4451C15.5622 10.0677 15.5944 9.68237 15.5944 9.29704C15.5944 8.91171 15.5622 8.52638 15.5 8.149L16.8159 7.0367C16.9152 6.9527 16.9862 6.84081 17.0196 6.71592C17.053 6.59103 17.0471 6.45906 17.0027 6.33755L16.9847 6.28591C16.6224 5.28489 16.0799 4.35694 15.3834 3.54688L15.3473 3.50517C15.2628 3.40696 15.1502 3.33636 15.0243 3.30267C14.8984 3.26899 14.7652 3.2738 14.6421 3.31648L13.0087 3.8905C12.406 3.40189 11.733 3.01656 11.0057 2.74643L10.6903 1.05813C10.6665 0.931094 10.6041 0.814224 10.5115 0.723046C10.419 0.631869 10.3005 0.5707 10.1719 0.547666L10.1177 0.537735C9.07095 0.351028 7.96998 0.351028 6.92325 0.537735L6.86901 0.547666C6.74042 0.5707 6.62197 0.631869 6.52938 0.723046C6.4368 0.814224 6.37447 0.931094 6.35067 1.05813L6.03324 2.75438C5.31176 3.02456 4.63988 3.40969 4.04426 3.89448L2.39883 3.31648C2.27581 3.27346 2.14246 3.26848 2.0165 3.30218C1.89054 3.33588 1.77793 3.40668 1.69365 3.50517L1.65749 3.54688C0.961838 4.35752 0.419449 5.28531 0.056258 6.28591L0.0381763 6.33755C-0.0522317 6.58583 0.0221038 6.8639 0.22502 7.0367L1.55703 8.16091C1.49475 8.53433 1.46461 8.91568 1.46461 9.29506C1.46461 9.67641 1.49475 10.0578 1.55703 10.4292L0.22502 11.5534C0.125763 11.6374 0.0547239 11.7493 0.0213484 11.8742C-0.0120272 11.9991 -0.0061578 12.1311 0.0381763 12.2526L0.056258 12.3042C0.419899 13.3053 0.95833 14.2289 1.65749 15.0432L1.69365 15.0849C1.77814 15.1832 1.89075 15.2538 2.01663 15.2874C2.14252 15.3211 2.27577 15.3163 2.39883 15.2736L4.04426 14.6956C4.64296 15.1823 5.31198 15.5676 6.03324 15.8357L6.35067 17.532C6.37447 17.659 6.4368 17.7759 6.52938 17.8671C6.62197 17.9582 6.74042 18.0194 6.86901 18.0424L6.92325 18.0524C7.97959 18.2401 9.06133 18.2401 10.1177 18.0524L10.1719 18.0424C10.3005 18.0194 10.419 17.9582 10.5115 17.8671C10.6041 17.7759 10.6665 17.659 10.6903 17.532L11.0057 15.8437C11.7327 15.5743 12.4095 15.1877 13.0087 14.6996L14.6421 15.2736C14.7651 15.3166 14.8985 15.3216 15.0244 15.2879C15.1504 15.2542 15.263 15.1834 15.3473 15.0849L15.3834 15.0432C16.0826 14.2269 16.621 13.3053 16.9847 12.3042L17.0027 12.2526C17.0932 12.0083 17.0188 11.7302 16.8159 11.5574ZM14.0735 8.38337C14.1238 8.6833 14.1499 8.99116 14.1499 9.29903C14.1499 9.6069 14.1238 9.91476 14.0735 10.2147L13.9409 11.0112L15.4417 12.2804C15.2142 12.7986 14.927 13.2891 14.5858 13.7422L12.7214 13.0888L12.0906 13.6012C11.6104 13.9905 11.076 14.2964 10.4974 14.5109L9.73193 14.7949L9.37231 16.7216C8.80489 16.7852 8.23202 16.7852 7.6646 16.7216L7.30498 14.791L6.54555 14.503C5.97296 14.2885 5.44056 13.9826 4.96441 13.5953L4.33356 13.0808L2.45709 13.7403C2.11555 13.2854 1.83027 12.7948 1.60123 12.2784L3.11808 10.9973L2.98749 10.2028C2.93927 9.90682 2.91315 9.60094 2.91315 9.29903C2.91315 8.99513 2.93726 8.69124 2.98749 8.39529L3.11808 7.6008L1.60123 6.31967C1.82826 5.80126 2.11555 5.31265 2.45709 4.8578L4.33356 5.51723L4.96441 5.0028C5.44056 4.61548 5.97296 4.3096 6.54555 4.09509L7.30698 3.81105L7.66661 1.88043C8.23116 1.81687 8.80776 1.81687 9.37432 1.88043L9.73394 3.80708L10.4994 4.09111C11.076 4.30563 11.6124 4.61151 12.0926 5.00081L12.7234 5.51326L14.5878 4.85979C14.9294 5.31464 15.2147 5.80524 15.4437 6.32166L13.9429 7.59086L14.0735 8.38337ZM8.52247 5.60463C6.56966 5.60463 4.98651 7.16978 4.98651 9.1004C4.98651 11.031 6.56966 12.5962 8.52247 12.5962C10.4753 12.5962 12.0584 11.031 12.0584 9.1004C12.0584 7.16978 10.4753 5.60463 8.52247 5.60463ZM10.1137 10.6735C9.90495 10.8804 9.65693 11.0445 9.38386 11.1563C9.11078 11.2681 8.81804 11.3254 8.52247 11.325C7.92176 11.325 7.35721 11.0926 6.93129 10.6735C6.72199 10.4672 6.55602 10.222 6.44293 9.952C6.32984 9.68203 6.27185 9.39261 6.27231 9.1004C6.27231 8.50652 6.50738 7.94839 6.93129 7.5273C7.35721 7.10622 7.92176 6.87582 8.52247 6.87582C9.12318 6.87582 9.68773 7.10622 10.1137 7.5273C10.323 7.73363 10.4889 7.97883 10.602 8.24881C10.7151 8.51878 10.7731 8.8082 10.7726 9.1004C10.7726 9.69429 10.5376 10.2524 10.1137 10.6735Z" fill="white"/>
</svg>
