<svg width="18" height="22" viewBox="0 0 18 22" fill="none" xmlns="http://www.w3.org/2000/svg">
<path d="M3.92365 5.90391C4.13877 6.11481 4.42946 6.23314 4.73242 6.23314C5.03538 6.23314 5.32607 6.11481 5.54119 5.90391C5.64713 5.80011 5.73121 5.67659 5.7886 5.54048C5.84598 5.40438 5.87552 5.25838 5.87552 5.11093C5.87552 4.96347 5.84598 4.81748 5.7886 4.68138C5.73121 4.54527 5.64713 4.42175 5.54119 4.31795C5.32607 4.10705 5.03538 3.98872 4.73242 3.98872C4.42946 3.98872 4.13877 4.10705 3.92365 4.31795C3.47846 4.75662 3.47846 5.46671 3.92365 5.90391ZM17.0139 12.5059C17.2912 12.2342 17.5114 11.9109 17.6617 11.5546C17.8119 11.1982 17.8893 10.816 17.8893 10.43C17.8893 10.0439 17.8119 9.66171 17.6617 9.30539C17.5114 8.94907 17.2912 8.62572 17.0139 8.354L9.9501 1.41452C9.39144 0.866556 8.63723 0.557758 7.85027 0.554791L3.00655 0.534251C2.61268 0.531532 2.22218 0.606076 1.85765 0.753569C1.49312 0.901062 1.1618 1.11857 0.88287 1.39351C0.603943 1.66845 0.382946 1.99536 0.232676 2.35531C0.0824051 2.71526 0.0058403 3.1011 0.00741959 3.4905L0.0430355 8.43909C0.0494556 9.21111 0.364151 9.94936 0.918587 10.4931L7.87846 17.3298C8.44035 17.8801 9.19927 18.1888 9.99017 18.1888C10.7811 18.1888 11.54 17.8801 12.1019 17.3298L17.0139 12.5059ZM15.9573 9.39125C16.096 9.52711 16.206 9.68879 16.2812 9.86695C16.3563 10.0451 16.395 10.2362 16.395 10.4292C16.395 10.6223 16.3563 10.8134 16.2812 10.9915C16.206 11.1697 16.096 11.3314 15.9573 11.4672L11.0453 16.294C10.4621 16.8662 9.51678 16.8662 8.93358 16.294L1.9737 9.4558C1.69696 9.18376 1.54014 8.81464 1.53741 8.42882L1.50031 3.48023C1.49932 3.28538 1.53748 3.09227 1.61259 2.91212C1.68769 2.73197 1.79823 2.56835 1.93781 2.43078C2.07738 2.2932 2.2432 2.1844 2.42564 2.11068C2.60809 2.03697 2.80353 1.99981 3.00061 2.00137L7.84433 2.02191C8.23807 2.0232 8.61548 2.17761 8.89499 2.45178L15.9588 9.39125H15.9573ZM17.8122 13.3715C18.0116 13.899 18.0532 14.472 17.9322 15.0222C17.8112 15.5724 17.5325 16.0766 17.1296 16.4745L14.2151 19.3559C13.6639 19.9009 13.0095 20.3332 12.2893 20.6281C11.5691 20.9231 10.7972 21.0749 10.0176 21.0749C9.23808 21.0749 8.46617 20.9231 7.74597 20.6281C7.02577 20.3332 6.37139 19.9009 5.82018 19.3559L0.652954 14.2474C0.235384 13.8351 0.000518799 13.2757 0 12.6923V11.5479L5.82018 17.302C5.92257 17.4032 6.02794 17.5 6.13479 17.591L6.86936 18.3187C7.28277 18.7275 7.77358 19.0517 8.31377 19.273C8.85395 19.4942 9.43292 19.6081 10.0176 19.6081C10.6023 19.6081 11.1813 19.4942 11.7215 19.273C12.2617 19.0517 12.7525 18.7275 13.1659 18.3187L13.9064 17.5866C14.0126 17.4953 14.1156 17.4003 14.2151 17.302L17.1296 14.4205C17.4308 14.1235 17.6637 13.7657 17.8122 13.3715Z" fill="white"/>
</svg>
