<svg width="26" height="18" viewBox="0 0 26 18" fill="none" xmlns="http://www.w3.org/2000/svg">
<path d="M12.4369 12.1207C13.5544 11.3781 14.4032 10.2953 14.8578 9.03266C15.3123 7.76999 15.3484 6.39447 14.9607 5.10967C14.573 3.82488 13.7821 2.69908 12.7051 1.89889C11.6281 1.09869 10.3221 0.666626 8.98055 0.666626C7.63897 0.666626 6.33302 1.09869 5.256 1.89889C4.17897 2.69908 3.38808 3.82488 3.00038 5.10967C2.61269 6.39447 2.64878 7.76999 3.10332 9.03266C3.55786 10.2953 4.4067 11.3781 5.52421 12.1207C3.61922 12.8236 1.97276 14.0891 0.803062 15.7494C0.739249 15.8388 0.693747 15.94 0.669177 16.0471C0.644608 16.1542 0.641455 16.265 0.6599 16.3734C0.678346 16.4817 0.718025 16.5853 0.776655 16.6782C0.835284 16.7711 0.911706 16.8515 1.00152 16.9147C1.09133 16.978 1.19277 17.0228 1.29998 17.0467C1.40719 17.0706 1.51806 17.073 1.62622 17.0539C1.73437 17.0347 1.83767 16.9943 1.93016 16.9351C2.02265 16.8758 2.10252 16.7988 2.16515 16.7086C2.93381 15.6147 3.95431 14.7219 5.14046 14.1056C6.32662 13.4892 7.64361 13.1675 8.98024 13.1674C10.3169 13.1674 11.6339 13.4891 12.8201 14.1053C14.0063 14.7216 15.0268 15.6143 15.7955 16.7082C15.8585 16.7978 15.9384 16.8741 16.0308 16.9327C16.1233 16.9914 16.2263 17.0313 16.3342 17.0501C16.442 17.0688 16.5525 17.0662 16.6593 17.0422C16.7661 17.0183 16.8671 16.9735 16.9566 16.9105C17.0461 16.8474 17.1223 16.7673 17.1808 16.6748C17.2394 16.5823 17.2791 16.4792 17.2978 16.3713C17.3164 16.2634 17.3137 16.1529 17.2896 16.046C17.2655 15.9392 17.2206 15.8382 17.1575 15.7487C15.9879 14.0888 14.3416 12.8235 12.4369 12.1206V12.1207ZM4.3996 6.91868C4.3996 6.01235 4.66826 5.12637 5.17162 4.37278C5.67497 3.61919 6.39041 3.03184 7.22746 2.685C8.06452 2.33816 8.98558 2.24741 9.87419 2.42423C10.7628 2.60105 11.579 3.03749 12.2197 3.67836C12.8603 4.31924 13.2966 5.13576 13.4734 6.02468C13.6501 6.9136 13.5594 7.83499 13.2127 8.67233C12.866 9.50967 12.2788 10.2254 11.5255 10.7289C10.7722 11.2324 9.88652 11.5012 8.9805 11.5012C7.76599 11.4998 6.60162 11.0166 5.74283 10.1575C4.88405 9.29839 4.40097 8.13361 4.3996 6.91868ZM25.4434 16.9098C25.354 16.9728 25.2531 17.0176 25.1463 17.0415C25.0396 17.0655 24.9292 17.0682 24.8215 17.0495C24.7137 17.0308 24.6107 16.991 24.5183 16.9325C24.4258 16.8739 24.3459 16.7977 24.2829 16.7083C23.5133 15.6154 22.4926 14.7234 21.3066 14.1073C20.1207 13.4911 18.8042 13.1689 17.4679 13.1676C17.247 13.1676 17.0351 13.0798 16.8789 12.9235C16.7227 12.7673 16.635 12.5553 16.635 12.3344C16.635 12.1134 16.7227 11.9015 16.8789 11.7452C17.0351 11.589 17.247 11.5012 17.4679 11.5012C18.122 11.5005 18.7684 11.3596 19.3636 11.088C19.9588 10.8165 20.4889 10.4206 20.9184 9.92696C21.3478 9.43332 21.6666 8.8534 21.8532 8.22623C22.0399 7.59905 22.0901 6.93916 22.0005 6.29094C21.9109 5.64273 21.6835 5.02123 21.3337 4.46827C20.9839 3.9153 20.5198 3.44369 19.9725 3.08517C19.4253 2.72664 18.8077 2.48952 18.1612 2.38975C17.5146 2.28998 16.8543 2.32989 16.2245 2.50677C16.0121 2.56568 15.7851 2.53801 15.5931 2.42982C15.4011 2.32163 15.2598 2.14173 15.2001 1.92953C15.1404 1.71733 15.1673 1.49012 15.2747 1.29766C15.3821 1.10519 15.5615 0.96317 15.7734 0.902686C17.2061 0.4983 18.7362 0.619178 20.0878 1.24353C21.4393 1.86789 22.5235 2.95466 23.1449 4.30796C23.7663 5.66127 23.884 7.1921 23.4768 8.62456C23.0697 10.057 22.1644 11.2969 20.9242 12.1207C22.8289 12.8235 24.4752 14.0888 25.6449 15.7489C25.7721 15.9295 25.8223 16.1533 25.7845 16.3711C25.7467 16.5888 25.6241 16.7826 25.4434 16.9098Z" fill="black"/>
</svg>
