<svg width="26" height="18" viewBox="0 0 26 18" fill="none" xmlns="http://www.w3.org/2000/svg">
<path d="M12.4369 12.1205C13.5544 11.378 14.4032 10.2952 14.8578 9.03254C15.3123 7.76986 15.3484 6.39434 14.9607 5.10955C14.573 3.82476 13.7821 2.69896 12.7051 1.89876C11.6281 1.09857 10.3221 0.666504 8.98055 0.666504C7.63897 0.666504 6.33302 1.09857 5.256 1.89876C4.17897 2.69896 3.38808 3.82476 3.00038 5.10955C2.61269 6.39434 2.64878 7.76986 3.10332 9.03254C3.55786 10.2952 4.4067 11.378 5.52421 12.1205C3.61922 12.8235 1.97276 14.089 0.803062 15.7493C0.739249 15.8387 0.693747 15.9399 0.669177 16.0469C0.644608 16.154 0.641455 16.2649 0.6599 16.3732C0.678346 16.4816 0.718025 16.5852 0.776655 16.6781C0.835284 16.771 0.911706 16.8514 1.00152 16.9146C1.09133 16.9779 1.19277 17.0227 1.29998 17.0466C1.40719 17.0705 1.51806 17.0729 1.62622 17.0537C1.73437 17.0346 1.83767 16.9942 1.93016 16.9349C2.02265 16.8757 2.10252 16.7987 2.16515 16.7085C2.93381 15.6146 3.95431 14.7218 5.14046 14.1055C6.32662 13.4891 7.64361 13.1673 8.98024 13.1673C10.3169 13.1673 11.6339 13.489 12.8201 14.1052C14.0063 14.7215 15.0268 15.6142 15.7955 16.708C15.8585 16.7976 15.9384 16.8739 16.0308 16.9326C16.1233 16.9913 16.2263 17.0311 16.3342 17.0499C16.442 17.0687 16.5525 17.0661 16.6593 17.0421C16.7661 17.0182 16.8671 16.9734 16.9566 16.9103C17.0461 16.8473 17.1223 16.7672 17.1808 16.6747C17.2394 16.5822 17.2791 16.479 17.2978 16.3711C17.3164 16.2632 17.3137 16.1527 17.2896 16.0459C17.2655 15.9391 17.2206 15.8381 17.1575 15.7486C15.9879 14.0886 14.3416 12.8233 12.4369 12.1204V12.1205ZM4.3996 6.91856C4.3996 6.01223 4.66826 5.12624 5.17162 4.37266C5.67497 3.61907 6.39041 3.03172 7.22746 2.68488C8.06452 2.33804 8.98558 2.24729 9.87419 2.42411C10.7628 2.60092 11.579 3.03736 12.2197 3.67824C12.8603 4.31911 13.2966 5.13564 13.4734 6.02456C13.6501 6.91348 13.5594 7.83486 13.2127 8.67221C12.866 9.50955 12.2788 10.2252 11.5255 10.7288C10.7722 11.2323 9.88652 11.5011 8.9805 11.5011C7.76599 11.4997 6.60162 11.0164 5.74283 10.1574C4.88405 9.29827 4.40097 8.13349 4.3996 6.91856ZM25.4434 16.9097C25.354 16.9727 25.2531 17.0174 25.1463 17.0414C25.0396 17.0654 24.9292 17.0681 24.8215 17.0494C24.7137 17.0307 24.6107 16.9909 24.5183 16.9324C24.4258 16.8738 24.3459 16.7976 24.2829 16.7081C23.5133 15.6153 22.4926 14.7233 21.3066 14.1072C20.1207 13.491 18.8042 13.1687 17.4679 13.1674C17.247 13.1674 17.0351 13.0796 16.8789 12.9234C16.7227 12.7671 16.635 12.5552 16.635 12.3342C16.635 12.1133 16.7227 11.9013 16.8789 11.7451C17.0351 11.5888 17.247 11.5011 17.4679 11.5011C18.122 11.5003 18.7684 11.3595 19.3636 11.0879C19.9588 10.8164 20.4889 10.4205 20.9184 9.92683C21.3478 9.4332 21.6666 8.85328 21.8532 8.22611C22.0399 7.59893 22.0901 6.93903 22.0005 6.29082C21.9109 5.64261 21.6835 5.02111 21.3337 4.46815C20.9839 3.91518 20.5198 3.44357 19.9725 3.08504C19.4253 2.72652 18.8077 2.4894 18.1612 2.38963C17.5146 2.28986 16.8543 2.32976 16.2245 2.50665C16.0121 2.56556 15.7851 2.53789 15.5931 2.4297C15.4011 2.32151 15.2598 2.14161 15.2001 1.92941C15.1404 1.71721 15.1673 1.49 15.2747 1.29753C15.3821 1.10507 15.5615 0.963048 15.7734 0.902564C17.2061 0.498178 18.7362 0.619056 20.0878 1.24341C21.4393 1.86777 22.5235 2.95453 23.1449 4.30784C23.7663 5.66115 23.884 7.19198 23.4768 8.62443C23.0697 10.0569 22.1644 11.2967 20.9242 12.1205C22.8289 12.8234 24.4752 14.0887 25.6449 15.7487C25.7721 15.9294 25.8223 16.1532 25.7845 16.3709C25.7467 16.5887 25.6241 16.7824 25.4434 16.9097Z" fill="black"/>
</svg>
