<svg width="18" height="17" viewBox="0 0 18 17" fill="none" xmlns="http://www.w3.org/2000/svg">
<path d="M16.5558 8.88237C16.8988 8.42903 17.0887 7.87359 17.0887 7.29569C17.0887 6.37881 16.5762 5.51094 15.7512 5.02697C15.5388 4.90239 15.297 4.83683 15.0508 4.83706H10.1539L10.2765 2.32738C10.305 1.72089 10.0906 1.14503 9.67405 0.705986C9.46961 0.489586 9.22297 0.31741 8.94936 0.200099C8.67575 0.0827877 8.38099 0.0228333 8.08329 0.0239409C7.02142 0.0239409 6.08208 0.738659 5.80027 1.76173L4.04615 8.11251H1.40578C1.04433 8.11251 0.752319 8.40452 0.752319 8.76597V16.199C0.752319 16.5605 1.04433 16.8525 1.40578 16.8525H13.6846C13.8725 16.8525 14.0563 16.8157 14.2258 16.7422C15.1978 16.3277 15.8247 15.3781 15.8247 14.3244C15.8247 14.0671 15.788 13.8139 15.7144 13.5689C16.0575 13.1155 16.2474 12.5601 16.2474 11.9822C16.2474 11.7249 16.2107 11.4717 16.1371 11.2266C16.4802 10.7733 16.6701 10.2179 16.6701 9.63997C16.666 9.38267 16.6293 9.12741 16.5558 8.88237ZM2.2226 15.3822V9.58279H3.87666V15.3822H2.2226ZM15.2182 8.17377L14.771 8.56176L15.0549 9.08045C15.1484 9.2513 15.1969 9.44315 15.1958 9.63793C15.1958 9.97486 15.0487 10.2955 14.7955 10.516L14.3483 10.904L14.6322 11.4227C14.7257 11.5935 14.7742 11.7854 14.7731 11.9802C14.7731 12.3171 14.626 12.6377 14.3728 12.8582L13.9256 13.2462L14.2094 13.7649C14.303 13.9358 14.3515 14.1276 14.3504 14.3224C14.3504 14.7798 14.0808 15.1923 13.6642 15.3802H5.18357V9.51744L7.21542 2.15584C7.26781 1.96716 7.38028 1.80069 7.53578 1.68167C7.69128 1.56265 7.88134 1.49756 8.07716 1.49626C8.23236 1.49626 8.38551 1.54119 8.50804 1.63308C8.7102 1.78419 8.81843 2.0129 8.80618 2.2559L8.61014 6.30734H15.0304C15.3938 6.52992 15.6185 6.90566 15.6185 7.29569C15.6185 7.63263 15.4714 7.95119 15.2182 8.17377Z" fill="black"/>
</svg>
