<svg width="10" height="6" viewBox="0 0 10 6" fill="none" xmlns="http://www.w3.org/2000/svg">
<path d="M0.767802 0.771117C1.12309 0.447197 1.61772 0.421777 2.05205 0.771117L5.2366 3.49248L8.42115 0.771117C8.85548 0.421777 9.35093 0.447197 9.70377 0.771117C10.0591 1.09431 10.0362 1.64047 9.70377 1.94405C9.37293 2.24764 5.87791 5.21375 5.87791 5.21375C5.79468 5.29063 5.69493 5.35178 5.58461 5.39354C5.47428 5.4353 5.35565 5.45683 5.23579 5.45683C5.11592 5.45683 4.99729 5.4353 4.88697 5.39354C4.77664 5.35178 4.67689 5.29063 4.59366 5.21375C4.59366 5.21375 1.10027 2.24764 0.767802 1.94405C0.434517 1.64047 0.412515 1.09431 0.767802 0.771117Z" fill="#858585"/>
</svg>
