<svg width="19" height="18" viewBox="0 0 19 18" fill="none" xmlns="http://www.w3.org/2000/svg">
<path d="M9.50328 8.86669C9.01673 8.86669 8.54112 9.01096 8.13657 9.28127C7.73203 9.55158 7.41672 9.93578 7.23053 10.3853C7.04434 10.8348 6.99562 11.3294 7.09054 11.8066C7.18546 12.2838 7.41976 12.7221 7.76379 13.0662C8.10783 13.4102 8.54616 13.6445 9.02335 13.7394C9.50055 13.8343 9.99517 13.7856 10.4447 13.5994C10.8942 13.4132 11.2784 13.0979 11.5487 12.6934C11.819 12.2888 11.9633 11.8132 11.9633 11.3267C11.9633 10.6743 11.7041 10.0485 11.2428 9.5872C10.7814 9.12586 10.1557 8.86669 9.50328 8.86669ZM9.50328 12.1467C9.34109 12.1467 9.18256 12.0986 9.04771 12.0085C8.91286 11.9184 8.80776 11.7903 8.74569 11.6405C8.68363 11.4907 8.66739 11.3258 8.69903 11.1667C8.73067 11.0076 8.80877 10.8615 8.92345 10.7469C9.03813 10.6322 9.18424 10.5541 9.3433 10.5224C9.50237 10.4908 9.66724 10.507 9.81708 10.5691C9.96691 10.6312 10.095 10.7363 10.1851 10.8711C10.2752 11.006 10.3233 11.1645 10.3233 11.3267C10.3233 11.5442 10.2369 11.7527 10.0831 11.9065C9.92932 12.0603 9.72075 12.1467 9.50328 12.1467ZM8.92108 6.98889C8.99906 7.06354 9.09102 7.12206 9.19168 7.16109C9.28983 7.20447 9.39596 7.22688 9.50328 7.22688C9.61059 7.22688 9.71672 7.20447 9.81488 7.16109C9.91553 7.12206 10.0075 7.06354 10.0855 6.98889L11.9633 5.14389C12.122 4.98513 12.2112 4.76981 12.2112 4.54529C12.2112 4.32077 12.122 4.10545 11.9633 3.94669C11.8045 3.78793 11.5892 3.69874 11.3647 3.69874C11.1402 3.69874 10.9248 3.78793 10.7661 3.94669L10.3233 4.43049V1.48669C10.3233 1.26921 10.2369 1.06064 10.0831 0.906859C9.92932 0.75308 9.72075 0.666687 9.50328 0.666687C9.2858 0.666687 9.07723 0.75308 8.92345 0.906859C8.76967 1.06064 8.68328 1.26921 8.68328 1.48669V4.43049L8.24048 3.94669C8.08172 3.78793 7.86639 3.69874 7.64188 3.69874C7.41736 3.69874 7.20203 3.78793 7.04328 3.94669C6.88452 4.10545 6.79533 4.32077 6.79533 4.54529C6.79533 4.76981 6.88452 4.98513 7.04328 5.14389L8.92108 6.98889ZM15.2433 11.3267C15.2433 11.1645 15.1952 11.006 15.1051 10.8711C15.015 10.7363 14.8869 10.6312 14.7371 10.5691C14.5872 10.507 14.4224 10.4908 14.2633 10.5224C14.1042 10.5541 13.9581 10.6322 13.8434 10.7469C13.7288 10.8615 13.6507 11.0076 13.619 11.1667C13.5874 11.3258 13.6036 11.4907 13.6657 11.6405C13.7278 11.7903 13.8329 11.9184 13.9677 12.0085C14.1026 12.0986 14.2611 12.1467 14.4233 12.1467C14.6408 12.1467 14.8493 12.0603 15.0031 11.9065C15.1569 11.7527 15.2433 11.5442 15.2433 11.3267ZM16.0633 5.58669H13.6033C13.3858 5.58669 13.1772 5.67308 13.0234 5.82686C12.8697 5.98064 12.7833 6.18921 12.7833 6.40669C12.7833 6.62416 12.8697 6.83273 13.0234 6.98651C13.1772 7.14029 13.3858 7.22669 13.6033 7.22669H16.0633C16.2808 7.22669 16.4893 7.31308 16.6431 7.46686C16.7969 7.62064 16.8833 7.82921 16.8833 8.04669V14.6067C16.8833 14.8242 16.7969 15.0327 16.6431 15.1865C16.4893 15.3403 16.2808 15.4267 16.0633 15.4267H2.94328C2.7258 15.4267 2.51723 15.3403 2.36345 15.1865C2.20967 15.0327 2.12328 14.8242 2.12328 14.6067V8.04669C2.12328 7.82921 2.20967 7.62064 2.36345 7.46686C2.51723 7.31308 2.7258 7.22669 2.94328 7.22669H5.40328C5.62075 7.22669 5.82932 7.14029 5.9831 6.98651C6.13688 6.83273 6.22328 6.62416 6.22328 6.40669C6.22328 6.18921 6.13688 5.98064 5.9831 5.82686C5.82932 5.67308 5.62075 5.58669 5.40328 5.58669H2.94328C2.29084 5.58669 1.66513 5.84586 1.20379 6.3072C0.742454 6.76854 0.483276 7.39425 0.483276 8.04669V14.6067C0.483276 15.2591 0.742454 15.8848 1.20379 16.3462C1.66513 16.8075 2.29084 17.0667 2.94328 17.0667H16.0633C16.7157 17.0667 17.3414 16.8075 17.8028 16.3462C18.2641 15.8848 18.5233 15.2591 18.5233 14.6067V8.04669C18.5233 7.39425 18.2641 6.76854 17.8028 6.3072C17.3414 5.84586 16.7157 5.58669 16.0633 5.58669ZM3.76328 11.3267C3.76328 11.4889 3.81137 11.6474 3.90147 11.7823C3.99157 11.9171 4.11964 12.0222 4.26948 12.0843C4.41931 12.1463 4.58419 12.1626 4.74325 12.1309C4.90231 12.0993 5.04842 12.0212 5.1631 11.9065C5.27778 11.7918 5.35588 11.6457 5.38752 11.4867C5.41916 11.3276 5.40292 11.1627 5.34086 11.0129C5.27879 10.8631 5.17369 10.735 5.03884 10.6449C4.904 10.5548 4.74546 10.5067 4.58328 10.5067C4.3658 10.5067 4.15723 10.5931 4.00345 10.7469C3.84967 10.9006 3.76328 11.1092 3.76328 11.3267Z" fill="black"/>
</svg>
