<svg width="18" height="18" viewBox="0 0 18 18" fill="none" xmlns="http://www.w3.org/2000/svg">
<path d="M9 0.102295C7.21997 0.102295 5.47991 0.624138 3.99987 1.60183C2.51983 2.57953 1.36628 3.96916 0.685088 5.59501C0.00389955 7.22086 -0.17433 9.00989 0.172936 10.7359C0.520203 12.4619 1.37737 14.0473 2.63604 15.2917C3.89471 16.536 5.49836 17.3835 7.24419 17.7268C8.99002 18.0701 10.7996 17.8939 12.4442 17.2204C14.0887 16.547 15.4943 15.4066 16.4832 13.9433C17.4722 12.4801 18 10.7598 18 9.00002C17.9973 6.64102 17.0482 4.37942 15.361 2.71135C13.6737 1.04329 11.3861 0.104986 9 0.102295ZM5.14286 15.5951V14.72C5.14337 14.2145 5.34672 13.7298 5.70829 13.3723C6.06986 13.0149 6.5601 12.8138 7.07143 12.8133H10.9286C11.4399 12.8138 11.9301 13.0149 12.2917 13.3723C12.6533 13.7298 12.8566 14.2145 12.8571 14.72V15.5951C11.6866 16.2709 10.3555 16.6269 9 16.6269C7.64453 16.6269 6.3134 16.2709 5.14286 15.5951ZM14.1377 14.673C14.1249 13.8393 13.7814 13.044 13.1811 12.4584C12.5808 11.8728 11.7719 11.5438 10.9286 11.5422H7.07143C6.22812 11.5438 5.41918 11.8728 4.81892 12.4584C4.21865 13.044 3.8751 13.8393 3.86229 14.673C2.69651 13.6438 1.8744 12.2889 1.50483 10.7876C1.13525 9.28631 1.23564 7.70943 1.7927 6.26579C2.34976 4.82214 3.33722 3.57982 4.62431 2.70333C5.91141 1.82684 7.43744 1.35753 9.00032 1.35753C10.5632 1.35753 12.0892 1.82684 13.3763 2.70333C14.6634 3.57982 15.6509 4.82214 16.2079 6.26579C16.765 7.70943 16.8654 9.28631 16.4958 10.7876C16.1262 12.2889 15.3041 13.6438 14.1384 14.673H14.1377Z" fill="white"/>
</svg>
