<svg width="18" height="17" viewBox="0 0 18 17" fill="none" xmlns="http://www.w3.org/2000/svg">
<path d="M16.5558 8.88224C16.8988 8.42891 17.0887 7.87347 17.0887 7.29557C17.0887 6.37869 16.5762 5.51081 15.7512 5.02685C15.5388 4.90227 15.297 4.83671 15.0508 4.83694H10.1539L10.2765 2.32725C10.305 1.72076 10.0906 1.14491 9.67405 0.705864C9.46961 0.489464 9.22297 0.317288 8.94936 0.199977C8.67575 0.0826656 8.38099 0.0227112 8.08329 0.0238188C7.02142 0.0238188 6.08208 0.738537 5.80027 1.76161L4.04615 8.11239H1.40578C1.04433 8.11239 0.752319 8.4044 0.752319 8.76585V16.1989C0.752319 16.5604 1.04433 16.8524 1.40578 16.8524H13.6846C13.8725 16.8524 14.0563 16.8156 14.2258 16.7421C15.1978 16.3276 15.8247 15.378 15.8247 14.3243C15.8247 14.067 15.788 13.8138 15.7144 13.5688C16.0575 13.1154 16.2474 12.56 16.2474 11.9821C16.2474 11.7248 16.2107 11.4716 16.1371 11.2265C16.4802 10.7732 16.6701 10.2177 16.6701 9.63984C16.666 9.38255 16.6293 9.12729 16.5558 8.88224ZM2.2226 15.3821V9.58267H3.87666V15.3821H2.2226ZM15.2182 8.17365L14.771 8.56164L15.0549 9.08032C15.1484 9.25118 15.1969 9.44303 15.1958 9.6378C15.1958 9.97474 15.0487 10.2953 14.7955 10.5159L14.3483 10.9039L14.6322 11.4226C14.7257 11.5934 14.7742 11.7853 14.7731 11.98C14.7731 12.317 14.626 12.6376 14.3728 12.8581L13.9256 13.2461L14.2094 13.7648C14.303 13.9356 14.3515 14.1275 14.3504 14.3223C14.3504 14.7797 14.0808 15.1922 13.6642 15.3801H5.18357V9.51732L7.21542 2.15572C7.26781 1.96704 7.38028 1.80057 7.53578 1.68155C7.69128 1.56253 7.88134 1.49744 8.07716 1.49614C8.23236 1.49614 8.38551 1.54106 8.50804 1.63296C8.7102 1.78407 8.81843 2.01278 8.80618 2.25578L8.61014 6.30722H15.0304C15.3938 6.5298 15.6185 6.90554 15.6185 7.29557C15.6185 7.63251 15.4714 7.95107 15.2182 8.17365Z" fill="black"/>
</svg>
