<svg width="18" height="19" viewBox="0 0 18 19" fill="none" xmlns="http://www.w3.org/2000/svg">
<path d="M16.9379 10.9472C16.8263 10.9077 16.7078 10.8905 16.5894 10.8964C16.4709 10.9024 16.3548 10.9314 16.2478 10.9818C16.1407 11.0323 16.0448 11.1031 15.9655 11.1903C15.8863 11.2776 15.8252 11.3794 15.7859 11.49C15.3803 12.6236 14.6908 13.6371 13.7819 14.436C12.873 15.2349 11.7741 15.7932 10.5879 16.0588C9.40176 16.3243 8.16686 16.2885 6.99846 15.9546C5.83006 15.6208 4.76623 14.9998 3.90623 14.1495C3.04623 13.2993 2.41809 12.2476 2.0804 11.0925C1.74271 9.93734 1.70648 8.71647 1.97509 7.54377C2.2437 6.37106 2.80839 5.28472 3.61649 4.38611C4.42459 3.4875 5.44976 2.8059 6.59636 2.4049C6.82193 2.32702 7.00698 2.16374 7.11079 1.95098C7.2146 1.73821 7.22866 1.49339 7.14989 1.27038C7.07111 1.04736 6.90595 0.864417 6.69074 0.76179C6.47553 0.659162 6.2279 0.645258 6.00232 0.723137C4.56858 1.22391 3.28654 2.07564 2.27585 3.19882C1.26517 4.32201 0.558799 5.68003 0.222663 7.14615C-0.113472 8.61227 -0.0684124 10.1387 0.353638 11.5829C0.775688 13.0272 1.56097 14.3422 2.63619 15.4052C3.71141 16.4682 5.04151 17.2445 6.50235 17.6618C7.9632 18.079 9.50716 18.1236 10.9901 17.7913C12.4731 17.4589 13.8467 16.7606 14.9828 15.7614C16.1189 14.7622 16.9804 13.4947 17.487 12.0773C17.5648 11.8554 17.5508 11.6121 17.4479 11.4004C17.3451 11.1887 17.1618 11.0258 16.9379 10.9472Z" fill="white"/>
</svg>
