<svg width="19" height="18" viewBox="0 0 19 18" fill="none" xmlns="http://www.w3.org/2000/svg">
<path d="M9.50328 8.86663C9.01673 8.86663 8.54112 9.0109 8.13657 9.28121C7.73203 9.55152 7.41672 9.93572 7.23053 10.3852C7.04434 10.8347 6.99562 11.3294 7.09054 11.8065C7.18546 12.2837 7.41976 12.7221 7.76379 13.0661C8.10783 13.4101 8.54616 13.6444 9.02335 13.7394C9.50055 13.8343 9.99517 13.7856 10.4447 13.5994C10.8942 13.4132 11.2784 13.0979 11.5487 12.6933C11.819 12.2888 11.9633 11.8132 11.9633 11.3266C11.9633 10.6742 11.7041 10.0485 11.2428 9.58714C10.7814 9.1258 10.1557 8.86663 9.50328 8.86663ZM9.50328 12.1466C9.34109 12.1466 9.18256 12.0985 9.04771 12.0084C8.91286 11.9183 8.80776 11.7903 8.74569 11.6404C8.68363 11.4906 8.66739 11.3257 8.69903 11.1667C8.73067 11.0076 8.80877 10.8615 8.92345 10.7468C9.03813 10.6321 9.18424 10.554 9.3433 10.5224C9.50237 10.4907 9.66724 10.507 9.81708 10.569C9.96691 10.6311 10.095 10.7362 10.1851 10.8711C10.2752 11.0059 10.3233 11.1644 10.3233 11.3266C10.3233 11.5441 10.2369 11.7527 10.0831 11.9065C9.92932 12.0602 9.72075 12.1466 9.50328 12.1466ZM8.92108 6.98883C8.99906 7.06348 9.09102 7.122 9.19168 7.16103C9.28983 7.20441 9.39596 7.22682 9.50328 7.22682C9.61059 7.22682 9.71672 7.20441 9.81488 7.16103C9.91553 7.122 10.0075 7.06348 10.0855 6.98883L11.9633 5.14383C12.122 4.98507 12.2112 4.76974 12.2112 4.54523C12.2112 4.32071 12.122 4.10538 11.9633 3.94663C11.8045 3.78787 11.5892 3.69868 11.3647 3.69868C11.1402 3.69868 10.9248 3.78787 10.7661 3.94663L10.3233 4.43043V1.48663C10.3233 1.26915 10.2369 1.06058 10.0831 0.906798C9.92932 0.753019 9.72075 0.666626 9.50328 0.666626C9.2858 0.666626 9.07723 0.753019 8.92345 0.906798C8.76967 1.06058 8.68328 1.26915 8.68328 1.48663V4.43043L8.24048 3.94663C8.08172 3.78787 7.86639 3.69868 7.64188 3.69868C7.41736 3.69868 7.20203 3.78787 7.04328 3.94663C6.88452 4.10538 6.79533 4.32071 6.79533 4.54523C6.79533 4.76974 6.88452 4.98507 7.04328 5.14383L8.92108 6.98883ZM15.2433 11.3266C15.2433 11.1644 15.1952 11.0059 15.1051 10.8711C15.015 10.7362 14.8869 10.6311 14.7371 10.569C14.5872 10.507 14.4224 10.4907 14.2633 10.5224C14.1042 10.554 13.9581 10.6321 13.8434 10.7468C13.7288 10.8615 13.6507 11.0076 13.619 11.1667C13.5874 11.3257 13.6036 11.4906 13.6657 11.6404C13.7278 11.7903 13.8329 11.9183 13.9677 12.0084C14.1026 12.0985 14.2611 12.1466 14.4233 12.1466C14.6408 12.1466 14.8493 12.0602 15.0031 11.9065C15.1569 11.7527 15.2433 11.5441 15.2433 11.3266ZM16.0633 5.58663H13.6033C13.3858 5.58663 13.1772 5.67302 13.0234 5.8268C12.8697 5.98058 12.7833 6.18915 12.7833 6.40663C12.7833 6.6241 12.8697 6.83267 13.0234 6.98645C13.1772 7.14023 13.3858 7.22663 13.6033 7.22663H16.0633C16.2808 7.22663 16.4893 7.31302 16.6431 7.4668C16.7969 7.62058 16.8833 7.82915 16.8833 8.04663V14.6066C16.8833 14.8241 16.7969 15.0327 16.6431 15.1865C16.4893 15.3402 16.2808 15.4266 16.0633 15.4266H2.94328C2.7258 15.4266 2.51723 15.3402 2.36345 15.1865C2.20967 15.0327 2.12328 14.8241 2.12328 14.6066V8.04663C2.12328 7.82915 2.20967 7.62058 2.36345 7.4668C2.51723 7.31302 2.7258 7.22663 2.94328 7.22663H5.40328C5.62075 7.22663 5.82932 7.14023 5.9831 6.98645C6.13688 6.83267 6.22328 6.6241 6.22328 6.40663C6.22328 6.18915 6.13688 5.98058 5.9831 5.8268C5.82932 5.67302 5.62075 5.58663 5.40328 5.58663H2.94328C2.29084 5.58663 1.66513 5.8458 1.20379 6.30714C0.742454 6.76848 0.483276 7.39419 0.483276 8.04663V14.6066C0.483276 15.2591 0.742454 15.8848 1.20379 16.3461C1.66513 16.8074 2.29084 17.0666 2.94328 17.0666H16.0633C16.7157 17.0666 17.3414 16.8074 17.8028 16.3461C18.2641 15.8848 18.5233 15.2591 18.5233 14.6066V8.04663C18.5233 7.39419 18.2641 6.76848 17.8028 6.30714C17.3414 5.8458 16.7157 5.58663 16.0633 5.58663ZM3.76328 11.3266C3.76328 11.4888 3.81137 11.6473 3.90147 11.7822C3.99157 11.917 4.11964 12.0221 4.26948 12.0842C4.41931 12.1463 4.58419 12.1625 4.74325 12.1309C4.90231 12.0992 5.04842 12.0211 5.1631 11.9065C5.27778 11.7918 5.35588 11.6457 5.38752 11.4866C5.41916 11.3275 5.40292 11.1627 5.34086 11.0128C5.27879 10.863 5.17369 10.7349 5.03884 10.6448C4.904 10.5547 4.74546 10.5066 4.58328 10.5066C4.3658 10.5066 4.15723 10.593 4.00345 10.7468C3.84967 10.9006 3.76328 11.1091 3.76328 11.3266Z" fill="black"/>
</svg>
